ply
format ascii 1.0
element vertex 167
property float x
property float y
property float z
property uchar red
property uchar green
property uchar blue
end_header
-0 -0 -0 0 255 0
-0 -0 -0 0 255 0
-0 -0 -0 0 255 0
-0 -0 -0 0 255 0
-0 -0 -0 0 255 0
-0 -0 -0 0 255 0
-0 -0 -0 0 255 0
-0 -0 -0 0 255 0
-0 -0 -0 0 255 0
-0 -0 -0 0 255 0
-0 -0 -0 0 255 0
-0 -0 -0 0 255 0
-0 -0 -0 0 255 0
-0 -0 -0 0 255 0
-0 -0 -0 0 255 0
-0 -0 -0 0 255 0
-0 -0 -0 0 255 0
-0 -0 -0 0 255 0
-0 -0 -0 0 255 0
-0 -0 -0 0 255 0
-0 -0 -0 0 255 0
-0 -0 -0 0 255 0
-0 -0 -0 0 255 0
-0 -0 -0 0 255 0
-0 -0 -0 0 255 0
-0 -0 -0 0 255 0
-0 -0 -0 0 255 0
-0 -0 -0 0 255 0
-0 -0 -0 0 255 0
-0 -0 -0 0 255 0
-0 -0 -0 0 255 0
-0 -0 -0 0 255 0
-0 -0 -0 0 255 0
-0 -0 -0 0 255 0
-0 -0 -0 0 255 0
-0 -0 -0 0 255 0
-0 -0 -0 0 255 0
-0 -0 -0 0 255 0
-0 -0 -0 0 255 0
-0 -0 -0 0 255 0
-0 -0 -0 0 255 0
-0 -0 -0 0 255 0
-0 -0 -0 0 255 0
-0 -0 -0 0 255 0
-0 -0 -0 0 255 0
-0 -0 -0 0 255 0
-0 -0 -0 0 255 0
-0 -0 -0 0 255 0
-0 -0 -0 0 255 0
-0 -0 -0 0 255 0
-0 -0 -0 0 255 0
-0 -0 -0 0 255 0
-0 -0 -0 0 255 0
-0 -0 -0 0 255 0
-0 -0 -0 0 255 0
-0 -0 -0 0 255 0
-0 -0 -0 0 255 0
-0 -0 -0 0 255 0
-0 -0 -0 0 255 0
-0 -0 -0 0 255 0
-0 -0 -0 0 255 0
-0 -0 -0 0 255 0
-0 -0 -0 0 255 0
-0 -0 -0 0 255 0
-0 -0 -0 0 255 0
-0 -0 -0 0 255 0
-0 -0 -0 0 255 0
-0 -0 -0 0 255 0
-0 -0 -0 0 255 0
-0 -0 -0 0 255 0
-0 -0 -0 0 255 0
-0 -0 -0 0 255 0
-0 -0 -0 0 255 0
-0 -0 -0 0 255 0
-0 -0 -0 0 255 0
-0 -0 -0 0 255 0
-0 -0 -0 0 255 0
-0 -0 -0 0 255 0
-0 -0 -0 0 255 0
-0 -0 -0 0 255 0
-0 -0 -0 0 255 0
-0 -0 -0 0 255 0
102 -58 700 221 212 197
109 122 700 215 204 184
438 233 700 200 189 167
851 254 700 185 174 152
280 262 700 208 196 174
116 276 700 211 200 180
93 -222 700 224 214 204
-1009 1150 700 195 194 190
-1093 1105 700 191 188 183
641 224 700 196 185 163
747 246 700 193 182 160
-128 604 700 209 209 207
809 -83 700 219 207 191
478 252 700 200 187 168
331 279 700 207 195 173
-56 573 700 209 209 209
368 212 700 206 195 173
253 94 700 206 195 177
-150 542 700 211 213 210
-1096 36 700 57 56 54
256 46 700 209 198 176
396 283 700 205 193 171
406 58 700 201 190 168
-1048 1027 700 193 190 185
209 107 700 209 198 178
550 253 700 204 189 170
365 20 700 198 187 165
643 274 700 198 186 164
-76 514 700 209 210 212
402 -180 700 225 212 203
214 242 700 204 196 173
359 70 700 204 189 168
203 -73 700 220 210 198
537 178 700 199 187 165
-962 1070 700 193 189 186
236 -264 700 224 214 202
356 -166 700 222 213 198
247 -88 700 223 211 197
523 -213 700 221 213 200
524 30 700 206 194 172
587 271 700 202 187 168
409 6 700 206 191 170
356 -116 700 219 211 198
532 -23 700 222 213 198
201 -121 700 222 212 200
245 -136 700 224 215 200
520 -164 700 222 214 201
-899 25 700 134 127 119
399 -133 700 222 213 198
513 -349 700 222 213 198
832 86 700 190 178 156
496 298 700 201 189 167
392 -313 700 223 215 202
194 -247 700 223 214 199
-349 11 700 202 203 198
-906 -56 700 209 208 206
-1311 -199 700 203 200 195
538 309 700 198 186 164
346 -297 700 225 217 204
210 58 700 208 195 176
434 296 700 200 188 166
97 234 700 212 199 180
67 -838 700 225 218 202
-478 -1 700 191 195 196
-1181 -375 700 204 201 196
-1189 -140 700 207 204 199
-432 26 700 196 198 195
-944 -79 700 201 200 196
-1412 102 700 181 177 166
-1013 -369 700 208 205 200
-156 -769 700 214 214 212
-1235 -474 700 200 197 192
-984 1116 700 189 185 182
-1225 69 700 240 240 230
-1076 1065 700 197 192 188
10 -915 700 224 215 200
-1166 57 700 72 73 68
-1482 -400 700 210 202 183
752 -137 700 221 214 198
-1315 -24 700 196 191 185
-1390 -48 700 198 194 185
-1056 1131 700 195 190 186
-385 -11 700 212 212 212
-1239 -374 700 202 199 192
144 -247 700 226 217 202
